HIERARCHY
ROOT SimulationBone
{
	OFFSET 0.000000 0.000000 0.000000
	CHANNELS 6 Xposition Yposition Zposition Zrotation Yrotation Xrotation 
	JOINT Hips
	{
		OFFSET 0.000000 0.000000 0.000000
		CHANNELS 6 Xposition Yposition Zposition Zrotation Yrotation Xrotation 
		JOINT RightUpLeg
		{
			OFFSET 0.103456 1.857840 10.548501
			CHANNELS 3 Zrotation Yrotation Xrotation
			JOINT RightLeg
			{
				OFFSET 43.499992 -0.000038 -0.000006
				CHANNELS 3 Zrotation Yrotation Xrotation
				JOINT RightFoot
				{
					OFFSET 42.372196 0.000031 0.000002
					CHANNELS 3 Zrotation Yrotation Xrotation
					JOINT RightToe
					{
						OFFSET 17.299974 -0.000010 -0.000017
						CHANNELS 3 Zrotation Yrotation Xrotation
						End Site
						{
							OFFSET 0.000000 0.000000 0.000000
						}
					}
				}
			}
		}
		JOINT LeftUpLeg
		{
			OFFSET 0.103462 1.857831 -10.548510
			CHANNELS 3 Zrotation Yrotation Xrotation
			JOINT LeftLeg
			{
				OFFSET 43.500046 -0.000015 0.000008
				CHANNELS 3 Zrotation Yrotation Xrotation
				JOINT LeftFoot
				{
					OFFSET 42.372265 -0.000015 0.000004
					CHANNELS 3 Zrotation Yrotation Xrotation
					JOINT LeftToe
					{
						OFFSET 17.299995 -0.000004 0.000013
						CHANNELS 3 Zrotation Yrotation Xrotation
						End Site
						{
							OFFSET 0.000000 0.000000 0.000000
						}
					}
				}
			}
		}
		JOINT Spine
		{
			OFFSET 6.901966 -2.603716 -0.000002
			CHANNELS 3 Zrotation Yrotation Xrotation
			JOINT Spine1
			{
				OFFSET 12.588102 -0.000001 0.000005
				CHANNELS 3 Zrotation Yrotation Xrotation
				JOINT Spine2
				{
					OFFSET 12.343201 -0.000023 -0.000011
					CHANNELS 3 Zrotation Yrotation Xrotation
					JOINT Neck
					{
						OFFSET 25.832901 0.000011 0.000007
						CHANNELS 3 Zrotation Yrotation Xrotation
						JOINT Head
						{
							OFFSET 11.766600 -0.000002 0.000002
							CHANNELS 3 Zrotation Yrotation Xrotation
							End Site
							{
								OFFSET 0.000000 0.000000 0.000000
							}
						}
					}
					JOINT RightShoulder
					{
						OFFSET 19.745907 -1.480350 6.000119
						CHANNELS 3 Zrotation Yrotation Xrotation
						JOINT RightArm
						{
							OFFSET 11.284122 -0.000013 -0.000023
							CHANNELS 3 Zrotation Yrotation Xrotation
							JOINT RightForeArm
							{
								OFFSET 33.000057 0.000005 0.000025
								CHANNELS 3 Zrotation Yrotation Xrotation
								JOINT RightHand
								{
									OFFSET 25.199997 0.000020 0.000019
									CHANNELS 3 Zrotation Yrotation Xrotation
									End Site
									{
										OFFSET 0.000000 0.000000 0.000000
									}
								}
							}
						}
					}
					JOINT LeftShoulder
					{
						OFFSET 19.746096 -1.480352 -6.000062
						CHANNELS 3 Zrotation Yrotation Xrotation
						JOINT LeftArm
						{
							OFFSET 11.284150 0.000007 -0.000012
							CHANNELS 3 Zrotation Yrotation Xrotation
							JOINT LeftForeArm
							{
								OFFSET 33.000092 0.000019 0.000012
								CHANNELS 3 Zrotation Yrotation Xrotation
								JOINT LeftHand
								{
									OFFSET 25.199797 0.000118 0.000427
									CHANNELS 3 Zrotation Yrotation Xrotation
									End Site
									{
										OFFSET 0.000000 0.000000 0.000000
									}
								}
							}
						}
					}
				}
			}
		}
	}
}
MOTION
Frames: 6
Frame Time: 0.016667
293.648197 0.000000 -266.341793 0.000000 -45.267990 0.000000 -12.196846 75.655416 0.839078 75.284130 -1.311122 -179.160342 120.584332 -6.680011 165.053277 -74.347240 3.556743 -7.580130 98.991872 4.663170 -4.440618 21.454554 0.003106 0.000017 138.144261 18.680701 179.554224 -104.125676 -3.388700 3.833506 84.474944 -0.805574 8.146416 21.454556 -0.003084 0.000000 11.027153 -1.991937 -2.578804 12.134667 -3.702055 -5.355358 11.817358 -3.734432 -5.332978 12.856029 17.144927 -1.113706 -31.038211 11.095933 -4.920532 110.136668 -77.017499 69.375051 -17.128310 47.025317 -2.490991 -64.079880 -14.123469 2.238700 -18.096780 -23.347727 24.807415 -154.528847 83.557951 27.316944 24.649621 -56.446955 -55.671473 -50.164451 14.801098 -1.744204 -2.023182 20.926218 -14.651550 
295.707750 0.000000 -264.532484 0.000000 -45.518397 0.000000 -12.258823 76.152161 0.343011 75.150706 -1.453715 -179.524131 123.112205 -7.461506 162.000298 -74.211767 4.206778 -7.046174 101.074996 4.362896 -3.839394 21.454553 0.003104 0.000017 132.650961 15.557603 179.030610 -104.804799 -3.250081 4.734962 84.965551 -1.616882 7.429081 21.454551 -0.003088 -0.000001 10.956480 -1.731599 -2.602537 11.979699 -3.184072 -5.372612 11.662575 -3.216545 -5.353366 12.248464 17.681685 -1.545628 -30.981990 10.645920 -4.986923 107.204076 -77.362146 72.282944 -22.447020 49.312749 -6.933937 -65.480961 -13.707778 2.254347 -17.858669 -23.443374 22.585950 -155.415049 83.473207 26.423790 25.949271 -54.581938 -58.031430 -49.931800 14.485960 -1.713891 -2.636482 20.701484 -14.786509 
297.743262 0.000000 -262.665518 0.000000 -45.820192 0.000000 -12.345827 76.740217 -0.241543 75.115875 -1.823895 179.989915 126.019150 -7.837352 159.089414 -73.606257 4.694199 -6.755592 102.794724 4.187658 -3.641497 21.454554 0.003104 0.000017 127.673951 12.443734 178.736364 -103.906419 -3.099754 5.209412 85.617634 -1.965297 7.593647 21.454545 -0.003093 -0.000002 10.885438 -1.492217 -2.613557 11.825037 -2.709169 -5.367522 11.508061 -2.741612 -5.351140 11.922722 17.222933 -1.837328 -31.195133 10.795078 -5.396702 105.972823 -77.587080 73.494611 -27.171873 51.071883 -10.000445 -67.525087 -13.161753 2.296539 -17.735322 -22.535926 22.410360 -154.927959 83.712202 26.911403 27.476063 -52.953207 -59.959131 -50.310183 14.088193 -1.699321 -4.025620 19.968918 -16.144125 
299.766750 0.000000 -260.739557 0.000000 -46.184199 0.000000 -12.399012 77.411758 -0.873121 75.149663 -2.409619 179.595485 129.148494 -7.642809 156.800024 -72.623925 4.757276 -6.695315 103.928902 4.156095 -3.771204 21.454557 0.003106 0.000017 123.431134 9.454999 178.738510 -101.434203 -2.918245 5.366164 86.069002 -2.116759 7.583048 21.454543 -0.003097 -0.000003 10.796984 -1.263518 -2.626841 11.636429 -2.256120 -5.368511 11.319581 -2.288575 -5.354856 11.709826 16.119530 -2.136399 -31.339004 11.236675 -6.057901 105.512006 -77.664478 73.947946 -31.309863 52.599911 -11.956411 -69.829148 -12.542787 2.349673 -17.502712 -20.716929 23.176848 -153.453158 84.055241 28.393067 29.138279 -51.344484 -61.655180 -51.262290 13.689520 -1.703901 -5.349537 19.224182 -17.688207 
301.772386 0.000000 -258.760950 0.000000 -46.629644 0.000000 -12.360245 78.165229 -1.517009 75.213327 -3.189742 179.472153 132.345498 -6.825309 155.334944 -71.342363 4.368560 -6.797260 104.244642 4.225910 -4.066170 21.454559 0.003108 0.000017 120.091331 6.716299 179.052846 -97.434382 -2.634776 5.376666 85.979825 -2.357963 6.417088 21.454546 -0.003099 -0.000003 10.677209 -1.041302 -2.658340 11.386021 -1.815654 -5.406914 11.069290 -1.848348 -5.395913 11.399070 14.846078 -2.593398 -31.085110 11.574709 -6.802904 104.366412 -77.662837 75.094565 -35.099299 54.234837 -13.252089 -72.112028 -11.894504 2.399989 -17.085969 -18.364931 23.469266 -152.010973 84.272003 29.842820 30.729229 -49.539803 -63.285369 -52.730611 13.395573 -1.732538 -5.912581 18.986483 -18.546682 
303.743691 0.000000 -256.741906 0.000000 -47.175484 0.000000 -12.264102 79.032677 -2.184633 75.319128 -4.147994 179.519344 135.566741 -5.517708 154.168529 -69.743853 4.047938 -6.890737 103.591019 4.259365 -4.333240 21.454560 0.003108 0.000017 117.736491 4.444401 179.445858 -92.015966 -2.038019 5.140254 85.681369 -2.501203 5.008967 21.454550 -0.003099 -0.000002 10.545290 -0.848861 -2.713997 11.113144 -1.432864 -5.497351 10.796530 -1.466110 -5.488653 11.207520 13.482909 -3.055940 -30.874025 11.769511 -7.518340 102.147024 -77.686416 77.312955 -38.618811 56.071302 -14.271109 -74.239880 -11.190807 2.439903 -16.682392 -15.965040 23.518944 -150.805189 84.528565 31.051800 32.082986 -47.894966 -64.761714 -54.380609 13.167220 -1.773425 -6.354280 18.912707 -18.982928 
